<?xml version="1.0" encoding="UTF-8" standalone="no"?>
<svg
   version="1.1"
   width="10.5287in"
   height="3.3012in"
   viewBox="0 0 758.0670 237.6873"
   id="svg12"
   sodipodi:docname="MLBB (Mobile Legends Bang Bang).cdr"
   xmlns:inkscape="http://www.inkscape.org/namespaces/inkscape"
   xmlns:sodipodi="http://sodipodi.sourceforge.net/DTD/sodipodi-0.dtd"
   xmlns:xlink="http://www.w3.org/1999/xlink"
   xmlns="http://www.w3.org/2000/svg"
   xmlns:svg="http://www.w3.org/2000/svg">
  <defs
     id="defs13" />
  <sodipodi:namedview
     id="namedview12"
     pagecolor="#ffffff"
     bordercolor="#000000"
     borderopacity="0.25"
     inkscape:showpageshadow="2"
     inkscape:pageopacity="0.0"
     inkscape:pagecheckerboard="0"
     inkscape:deskcolor="#d1d1d1"
     inkscape:document-units="in" />
  <g
     id="Layer1000">
    <defs
       id="defs4">
      <linearGradient
         id="grad1">
        <stop
           offset="0.0000%"
           stop-color="#e6be7a"
           stop-opacity="1.0000"
           id="stop1" />
        <stop
           offset="26.0000%"
           stop-color="#f9d58e"
           stop-opacity="1.0000"
           id="stop2" />
        <stop
           offset="69.0000%"
           stop-color="#deb775"
           stop-opacity="1.0000"
           id="stop3" />
        <stop
           offset="100.0000%"
           stop-color="#ae814b"
           stop-opacity="1.0000"
           id="stop4" />
      </linearGradient>
      <linearGradient
         xlink:href="#grad1"
         id="grad2"
         x1="0"
         y1="0"
         x2="0"
         y2="1"
         gradientTransform="rotate(2 .5 .5)"
         gradientUnits="objectBoundingBox" />
    </defs>
    <path
       d="  M286.8552,50.6964 L243.5468,0.0000 L243.5468,91.8398 L260.8701,84.3247 L260.8701,45.4738 L286.8552,75.9170 L312.8404,45.4738 L312.8404,84.3242 L330.1636,91.8393 L330.1641,0.0000 L286.8552,50.6964 L286.8552,50.6964 Z Z M261.6346,102.5391 L244.3113,110.0542 L244.3113,195.2701 C264.0547,195.2701 283.6711,195.2701 303.4150,195.2701 L303.4150,172.9789 L295.7723,177.9468 L261.6346,177.9473 L261.6346,102.5391 L261.6346,102.5391 Z Z M459.1982,195.3981 L459.1982,153.1084 L436.9071,153.1084 L441.8749,160.7511 L441.8749,172.3425 C437.2893,176.5458 431.0476,179.0936 424.4241,179.0936 C409.9027,179.0936 398.1843,167.3746 398.1843,152.8537 C398.1843,138.3324 409.9032,126.6139 424.4241,126.6139 C432.8313,126.6139 440.2188,130.5626 445.0596,136.6768 L458.0524,126.8686 C450.2821,116.8058 438.0538,110.3094 424.4246,110.3094 C400.9872,110.3094 381.8802,129.2887 381.8802,152.8537 C381.8802,176.2912 400.8596,195.3981 424.4246,195.3981 C432.7042,195.3981 440.3469,193.1051 446.8433,189.0293 L459.1982,195.3981 L459.1982,195.3981 Z Z M717.0112,125.4672 C726.8194,122.9194 743.8880,127.1233 755.3522,135.0206 L755.3522,110.3094 L747.7096,115.2772 C730.2587,110.1823 716.7566,109.1631 708.3498,114.3856 C700.5796,119.0988 694.9753,124.0662 696.2491,135.2758 C697.2683,144.1923 698.5422,148.9051 711.9167,154.8921 C718.7954,157.9492 725.9283,160.3693 732.8069,163.1717 C747.5829,168.3943 744.1436,178.8394 729.1129,179.3487 C716.6299,179.8581 705.2932,176.1641 694.7206,170.4322 L694.7206,195.1434 L702.3633,190.1756 C713.8275,192.3410 724.7820,195.9075 734.7172,194.2518 C745.0347,192.5957 757.3906,186.2269 758.0275,172.9799 C758.7921,158.3314 748.3470,151.8350 734.4626,147.2494 C727.8391,145.0840 720.8333,142.7914 715.2285,138.7151 C709.4961,134.6384 711.5340,126.8686 717.0112,125.4672 L717.0112,125.4672 Z Z M463.1469,110.3094 L468.1148,117.9520 L468.1148,187.6278 L463.1469,195.2705 L531.4212,195.2705 L531.4212,174.3804 L523.7786,179.3482 L485.5651,179.3482 L485.5651,160.7511 L519.3205,160.7511 L519.3205,144.8288 L485.5651,144.8288 L485.5651,126.2317 L523.7786,126.2317 L531.4212,131.1995 L531.4212,110.3094 C508.6208,110.3094 485.8203,110.3094 463.1469,110.3094 L463.1469,110.3094 Z Z M308.5099,110.3094 L313.4778,117.9520 L313.4778,187.6278 L308.5099,195.2705 L376.7843,195.2705 L376.7843,174.3804 L369.1416,179.3482 L330.9281,179.3482 L330.9281,160.7511 L364.6836,160.7511 L364.6836,144.8288 L330.9281,144.8288 L330.9281,126.2317 L369.1416,126.2317 L376.7843,131.1995 L376.7843,110.3094 C353.9838,110.3094 331.3104,110.3094 308.5099,110.3094 L308.5099,110.3094 Z Z M554.4769,14.9031 L559.4448,7.2604 L532.1858,7.2604 L537.1536,14.9031 L537.1536,93.6225 C556.8970,93.6225 576.5133,93.6225 596.2572,93.6225 L596.2568,71.3314 L588.6141,76.2993 L554.4769,76.2993 L554.4769,14.9031 L554.4769,14.9031 Z Z M601.4793,7.2604 L606.4472,14.9031 L606.4472,85.8528 L601.4793,93.4954 L669.7541,93.4954 L669.7541,71.3314 L662.1115,76.2993 L623.8980,76.2993 L623.8980,59.1031 L657.6529,59.1031 L657.6529,41.7798 L623.8980,41.7798 L623.8980,24.4566 L662.1115,24.4566 L669.7541,29.4244 L669.7541,7.2604 C646.9532,7.2604 624.1527,7.2604 601.4793,7.2604 L601.4793,7.2604 Z Z M604.9186,195.3981 L604.9186,117.9520 L609.6318,110.4369 C600.9699,110.4369 592.4357,110.4369 583.7743,110.4369 L588.4875,117.9520 L588.4875,154.5094 L541.1028,110.4365 L541.1028,187.8825 L536.3896,195.3976 C545.0515,195.3976 553.5858,195.3976 562.2472,195.3976 L557.5340,187.8825 L557.5340,151.3252 L604.9186,195.3981 L604.9186,195.3981 Z Z M613.4529,110.3094 L618.4208,117.8245 L618.4208,187.6278 L613.4529,195.1430 C625.1719,195.1430 636.8903,195.1430 648.6093,195.1430 C665.1685,195.1430 685.9311,178.0744 685.9311,159.6043 L685.9311,143.9372 C685.9311,125.4672 666.3148,110.3094 649.7556,110.3094 C637.6549,110.3094 625.5536,110.3094 613.4529,110.3094 L613.4529,110.3094 Z Z M634.9800,126.7410 L648.4817,126.7410 C659.8184,126.7410 669.1172,136.0398 669.1172,147.3765 L669.1172,157.0571 C669.1172,168.3938 658.6721,178.8389 647.3354,178.8389 L634.9800,178.8389 L634.9800,126.7410 L634.9800,126.7410 Z Z M524.1608,14.9031 L529.1287,7.2604 C520.0850,7.2604 510.9138,7.2604 501.8697,7.2604 L506.8375,14.9031 L506.8375,85.8528 L501.8697,93.4954 C510.9133,93.4954 520.0846,93.4954 529.1287,93.4954 L524.1608,85.8528 L524.1608,14.9031 L524.1608,14.9031 Z Z M428.4999,93.6225 L433.4677,85.9799 L433.4677,14.9031 L428.4999,7.2604 L467.0956,7.2604 C481.7440,7.2604 493.5901,17.7055 493.5901,30.4431 L493.5901,30.4431 C493.5901,36.4297 491.8068,41.9074 488.3675,45.9832 C494.7363,50.9511 498.1757,58.4662 498.1757,66.8734 L498.1757,66.8734 C498.1757,81.6494 485.0558,93.6230 468.8788,93.6230 L428.4999,93.6225 L428.4999,93.6225 Z Z M450.6639,79.9933 L469.6428,79.9933 C475.8845,79.9933 480.9795,74.0067 480.9795,66.7458 L480.9795,66.7458 C480.9795,59.4854 475.8845,53.4983 469.6428,53.4983 L450.6639,53.4988 L450.6639,79.9933 L450.6639,79.9933 Z Z M450.6639,39.9966 L466.8409,39.9966 C472.1910,39.9966 476.5215,35.6657 476.5215,30.3161 L476.5215,30.3161 C476.5215,24.9659 472.1905,20.6355 466.8409,20.6355 L450.6639,20.6350 L450.6639,39.9966 L450.6639,39.9966 Z Z M381.7521,7.2604 C405.5718,7.2604 424.9334,26.6220 424.9334,50.4417 C424.9334,74.2614 405.5718,93.6230 381.7521,93.6230 C357.9325,93.6230 338.5708,74.2614 338.5708,50.4417 C338.5708,26.4945 357.9325,7.2604 381.7521,7.2604 L381.7521,7.2604 Z Z M371.5617,50.4417 L381.7521,62.7976 L391.9426,50.4417 L381.7521,38.0858 L371.5617,50.4417 L371.5617,50.4417 Z Z M381.7521,24.3290 C367.3584,24.3290 355.6394,36.0479 355.6394,50.4417 C355.6394,64.8355 367.3584,76.5544 381.7521,76.5544 C396.1459,76.5544 407.8649,64.8355 407.8649,50.4417 C407.8649,35.9204 396.2730,24.3290 381.7521,24.3290 Z"
       style="fill: url(#grad2); "
       id="path4" />
    <defs
       id="defs7">
      <linearGradient
         id="grad3">
        <stop
           offset="0.0000%"
           stop-color="#a57f51"
           stop-opacity="1.0000"
           id="stop5" />
        <stop
           offset="53.0000%"
           stop-color="#b89465"
           stop-opacity="1.0000"
           id="stop6" />
        <stop
           offset="100.0000%"
           stop-color="#e5b789"
           stop-opacity="1.0000"
           id="stop7" />
      </linearGradient>
      <linearGradient
         xlink:href="#grad3"
         id="grad4"
         x1="0"
         y1="0"
         x2="0"
         y2="1"
         gradientTransform="rotate(298 .5 .5)"
         gradientUnits="objectBoundingBox" />
    </defs>
    <path
       d="  M244.3113,209.4096 L256.7943,209.4096 C259.2145,209.4096 261.1253,209.5372 262.2715,209.6643 C263.5454,209.7919 264.5646,210.1737 265.5833,210.8106 C266.6025,211.4475 267.3665,212.2115 268.0034,213.1036 C268.6404,214.1228 269.0226,215.1415 269.0226,216.2883 C269.0226,217.5621 268.6404,218.8360 267.8763,219.8547 C267.1118,221.0010 265.9655,221.7655 264.6917,222.2749 C266.6025,222.7842 268.0034,223.5487 269.0226,224.8226 C270.0418,225.9689 270.5512,227.3703 270.5512,229.0259 C270.5512,230.2998 270.1689,231.5737 269.5320,232.7199 C268.8950,233.8662 268.0034,234.8854 266.8571,235.5223 C265.7109,236.2869 264.3094,236.6686 262.6538,236.7962 C261.6346,236.9238 259.0874,236.9238 255.0111,236.9238 L244.3113,236.9233 L244.3113,209.4096 L244.3113,209.4096 Z Z M650.1378,226.4782 L650.1378,222.1473 L664.9139,222.1473 C664.9139,225.8413 664.2769,228.3890 663.2577,230.8092 C662.3661,232.7199 660.3282,235.0125 658.0352,235.9041 C655.6150,236.7957 652.9402,237.1780 650.3925,237.1780 C647.0808,237.1780 644.2784,236.5410 641.8582,235.3948 C639.4381,234.1209 637.6549,232.4653 636.3810,230.1722 C635.1071,227.8792 634.5978,225.4590 634.5978,222.7842 C634.5978,219.8547 635.2347,217.3070 636.6357,215.0139 C638.0366,212.7209 639.9474,211.0653 642.6222,209.7914 C644.6601,208.8998 647.0803,208.3904 650.1373,208.3904 C653.9589,208.3904 657.0160,209.1550 659.1810,210.5559 C661.3465,211.9569 663.1297,214.7593 663.3844,217.6892 L657.1426,217.5617 C656.1234,214.3770 653.1939,212.8485 650.1369,213.1036 C645.4237,213.4859 644.1503,219.0902 644.1503,222.4024 C644.1503,225.9689 646.1882,230.4274 650.0098,230.4274 C655.1047,230.4274 655.8692,228.1343 655.8692,226.4787 L650.1378,226.4782 L650.1378,226.4782 Z Z M405.4442,226.9876 L405.4442,222.6566 L420.0932,222.6566 C420.0932,226.3506 419.4562,228.8984 418.4370,231.3185 C417.5454,233.2293 415.5075,235.5219 413.2145,236.4135 C410.7944,237.3051 408.1195,237.6873 405.5718,237.6873 C402.2601,237.6873 399.4577,237.0504 397.0375,235.9041 C394.6174,234.6303 392.8342,232.9746 391.5603,230.6816 C390.2864,228.3885 389.7771,225.9684 389.7771,223.2936 C389.7771,220.3641 390.4140,217.8163 391.8150,215.5233 C393.2159,213.2302 395.1267,211.5746 397.8015,210.3008 C399.8394,209.4091 402.2596,208.8998 405.3167,208.8998 C409.1382,208.8998 412.1953,209.6643 414.3603,211.0653 C416.5258,212.4662 418.3090,215.2686 418.5637,218.1986 L412.3219,218.0710 C411.3027,214.8864 408.3732,213.3578 405.3162,213.6130 C400.6030,213.9952 399.3296,219.5996 399.3296,222.9118 C399.3296,226.4782 401.3675,230.9367 405.1891,230.9367 C410.2840,230.9367 411.0486,228.6437 411.0486,226.9880 L405.4442,226.9876 L405.4442,226.9876 Z Z M588.4870,237.1780 L588.4870,209.4096 L594.6011,209.4096 L607.4664,228.0068 L607.4664,209.4096 L613.3253,209.4096 L613.3253,237.1780 L606.9565,237.1780 L594.3460,218.9631 L594.3460,237.1780 L588.4870,237.1780 L588.4870,237.1780 Z Z M343.7934,237.1780 L343.7934,209.4096 L349.9075,209.4096 L362.7728,228.0068 L362.7728,209.4096 L368.6322,209.4096 L368.6322,237.1780 L362.2634,237.1780 L349.6529,218.9631 L349.6529,237.1780 L343.7934,237.1780 L343.7934,237.1780 Z Z M565.5589,237.1780 L559.4448,237.1780 L557.0246,230.8092 L545.6879,230.8092 L543.3949,237.1780 L537.2807,237.1780 L548.2352,209.4096 L554.3493,209.4096 L565.5589,237.1780 L565.5589,237.1780 Z Z M555.1138,226.0960 L551.1651,215.7785 L547.3436,226.0960 L555.1138,226.0960 L555.1138,226.0960 Z Z M320.8653,237.1780 L314.6241,237.1780 L312.2039,230.8092 L300.8672,230.8092 L298.5742,237.1780 L292.4600,237.1780 L303.4145,209.4096 L309.5286,209.4096 L320.8653,237.1780 L320.8653,237.1780 Z Z M310.2931,226.0960 L306.3444,215.7785 L302.5229,226.0960 L310.2931,226.0960 L310.2931,226.0960 Z Z M489.0044,209.4096 L501.4874,209.4096 C503.9076,209.4096 505.8184,209.5372 506.9646,209.6643 C508.2385,209.7919 509.2577,210.1737 510.2764,210.8106 C511.2956,211.4475 512.0596,212.2115 512.6965,213.1036 C513.3335,214.1228 513.7157,215.1415 513.7157,216.2883 C513.7157,217.5621 513.3335,218.8360 512.5694,219.8547 C511.8049,221.0010 510.6587,221.7655 509.3848,222.2749 C511.2956,222.7842 512.6965,223.5487 513.7157,224.8226 C514.7349,225.9689 515.2443,227.3703 515.2443,229.0259 C515.2443,230.2998 514.8620,231.5737 514.2251,232.7199 C513.5881,233.8662 512.6965,234.8854 511.5503,235.5223 C510.4040,236.2869 509.0025,236.6686 507.3469,236.7962 C506.3277,236.9238 503.7805,236.9238 499.7042,236.9238 L489.0044,236.9233 L489.0044,209.4096 L489.0044,209.4096 Z Z M495.3733,213.9952 L495.3733,220.3641 L499.4495,220.3641 C501.8697,220.3641 503.3982,220.3641 504.0351,220.2365 C505.0543,220.1089 505.9459,219.8542 506.5829,219.2173 C507.2198,218.7079 507.4745,217.9434 507.4745,217.0518 C507.4745,216.1602 507.2198,215.5233 506.7100,215.0139 C506.2006,214.5046 505.4361,214.1223 504.2898,213.9948 C503.6529,213.8672 501.8697,213.8672 498.9397,213.8672 L495.3733,213.8677 L495.3733,213.9952 Z Z M495.3733,225.0768 L495.3733,232.4648 L501.2328,232.4648 C503.5258,232.4648 504.9268,232.4648 505.5637,232.3372 C506.4553,232.2096 507.2198,231.8279 507.8567,231.1909 C508.4937,230.5540 508.7483,229.7900 508.7483,228.7708 C508.7483,227.8792 508.4937,227.2422 508.1114,226.6053 C507.6021,225.9684 506.9651,225.5861 506.2006,225.3315 C505.3090,225.0768 503.5258,224.9492 500.5958,224.9492 L495.3733,224.9497 L495.3733,225.0768 Z Z M250.6802,213.9952 L250.6802,220.3641 L254.7559,220.3641 C257.1761,220.3641 258.7046,220.3641 259.3416,220.2365 C260.3607,220.1089 261.2523,219.8542 261.8893,219.2173 C262.5262,218.7079 262.7809,217.9434 262.7809,217.0518 C262.7809,216.1602 262.5262,215.5233 262.0164,215.0139 C261.5070,214.5046 260.7425,214.1223 259.5962,213.9948 C258.9593,213.8672 257.1761,213.8672 254.2461,213.8672 L250.6802,213.8677 L250.6802,213.9952 Z Z M250.6802,225.0768 L250.6802,232.4648 L256.5396,232.4648 C258.8327,232.4648 260.2336,232.4648 260.8706,232.3372 C261.7622,232.2096 262.5267,231.8279 263.1636,231.1909 C263.8006,230.5540 264.0552,229.7900 264.0552,228.7708 C264.0552,227.8792 263.8006,227.2422 263.4183,226.6053 C262.9089,225.9684 262.2720,225.5861 261.5075,225.3315 C260.6159,225.0768 258.8327,224.9492 255.9027,224.9492 L250.6802,224.9497 L250.6802,225.0768 Z"
       style="fill: url(#grad4); "
       id="path7" />
    <defs
       id="defs12">
      <linearGradient
         id="grad5">
        <stop
           offset="0.0000%"
           stop-color="#d5ab6a"
           stop-opacity="1.0000"
           id="stop8" />
        <stop
           offset="25.0000%"
           stop-color="#d5ab6a"
           stop-opacity="1.0000"
           id="stop9" />
        <stop
           offset="50.0000%"
           stop-color="#f9d58e"
           stop-opacity="1.0000"
           id="stop10" />
        <stop
           offset="78.0000%"
           stop-color="#916832"
           stop-opacity="1.0000"
           id="stop11" />
        <stop
           offset="100.0000%"
           stop-color="#764d23"
           stop-opacity="1.0000"
           id="stop12" />
      </linearGradient>
      <linearGradient
         xlink:href="#grad5"
         id="grad6"
         x1="0"
         y1="0"
         x2="0"
         y2="1"
         gradientTransform="rotate(333 .5 .5)"
         gradientUnits="objectBoundingBox" />
    </defs>
    <path
       d="  M25.7305,9.0436 L109.0355,9.0436 L121.6461,9.0436 C142.9180,9.0436 148.0135,14.1386 157.0571,23.0551 L212.5938,78.0825 C222.1473,87.5084 228.1339,93.4954 228.1339,115.4043 L228.1339,128.0149 L228.1339,209.7919 L190.9396,172.8523 L190.9396,85.8528 L157.9487,53.2441 L114.0034,96.8072 L25.7305,9.0436 L25.7305,9.0436 Z Z M207.2442,237.1780 L156.8024,187.1185 L156.8024,102.1573 L114.0034,144.7017 L71.2043,102.1573 L71.2043,194.1243 L37.1943,160.3688 L37.1943,68.4019 L0.0000,31.4623 L0.0000,118.2067 L0.0000,130.8173 C0.0000,152.7262 5.9866,158.5856 15.5401,168.1391 L71.0768,223.1665 C80.1204,232.0830 85.2158,237.1780 106.4878,237.1780 L119.0984,237.1780 L207.2442,237.1780 L207.2442,237.1780 Z Z M52.4796,237.1780 L0.0000,185.0801 L0.0000,237.1780 L52.4796,237.1780 L52.4796,237.1780 Z Z M175.5271,9.0436 L228.0068,61.1415 L228.0068,9.0436 L175.5271,9.0436 Z"
       style="fill: url(#grad6); "
       id="path12" />
  </g>
</svg>
